<svg xmlns="http://www.w3.org/2000/svg" width="3000" height="1750" viewBox="0 0 3000 1750">
  <defs>
    <linearGradient id="bg" x1="0" y1="0" x2="1" y2="1">
      <stop offset="0%" stop-color="#06111e"/>
      <stop offset="55%" stop-color="#06171b"/>
      <stop offset="100%" stop-color="#0b0f16"/>
    </linearGradient>
    <linearGradient id="panelBlue" x1="0" y1="0" x2="1" y2="1">
      <stop offset="0%" stop-color="#102d50"/>
      <stop offset="100%" stop-color="#081a30"/>
    </linearGradient>
    <linearGradient id="panelPurple" x1="0" y1="0" x2="1" y2="1">
      <stop offset="0%" stop-color="#2a1641"/>
      <stop offset="100%" stop-color="#151026"/>
    </linearGradient>
    <linearGradient id="panelOrange" x1="0" y1="0" x2="1" y2="1">
      <stop offset="0%" stop-color="#3a230b"/>
      <stop offset="100%" stop-color="#1a1309"/>
    </linearGradient>
    <linearGradient id="panelGreen" x1="0" y1="0" x2="1" y2="1">
      <stop offset="0%" stop-color="#0d3427"/>
      <stop offset="100%" stop-color="#071d16"/>
    </linearGradient>
    <linearGradient id="panelCyan" x1="0" y1="0" x2="1" y2="1">
      <stop offset="0%" stop-color="#062d36"/>
      <stop offset="100%" stop-color="#071722"/>
    </linearGradient>
    <linearGradient id="panelYellow" x1="0" y1="0" x2="1" y2="1">
      <stop offset="0%" stop-color="#2b2708"/>
      <stop offset="100%" stop-color="#151406"/>
    </linearGradient>
    <marker id="arrowBlue" markerWidth="12" markerHeight="12" refX="10" refY="6" orient="auto" markerUnits="strokeWidth">
      <path d="M 0 0 L 12 6 L 0 12 z" fill="#64b5ff"/>
    </marker>
    <marker id="arrowPurple" markerWidth="12" markerHeight="12" refX="10" refY="6" orient="auto" markerUnits="strokeWidth">
      <path d="M 0 0 L 12 6 L 0 12 z" fill="#d48bff"/>
    </marker>
    <marker id="arrowOrange" markerWidth="12" markerHeight="12" refX="10" refY="6" orient="auto" markerUnits="strokeWidth">
      <path d="M 0 0 L 12 6 L 0 12 z" fill="#ffb23d"/>
    </marker>
    <marker id="arrowGreen" markerWidth="12" markerHeight="12" refX="10" refY="6" orient="auto" markerUnits="strokeWidth">
      <path d="M 0 0 L 12 6 L 0 12 z" fill="#67e89f"/>
    </marker>
    <marker id="arrowRed" markerWidth="12" markerHeight="12" refX="10" refY="6" orient="auto" markerUnits="strokeWidth">
      <path d="M 0 0 L 12 6 L 0 12 z" fill="#ff6b5f"/>
    </marker>
    <marker id="arrowCyan" markerWidth="12" markerHeight="12" refX="10" refY="6" orient="auto" markerUnits="strokeWidth">
      <path d="M 0 0 L 12 6 L 0 12 z" fill="#45d6ff"/>
    </marker>
    <marker id="arrowYellow" markerWidth="12" markerHeight="12" refX="10" refY="6" orient="auto" markerUnits="strokeWidth">
      <path d="M 0 0 L 12 6 L 0 12 z" fill="#ffd34d"/>
    </marker>
    <style>
      .font { font-family: Menlo, Consolas, "SF Mono", monospace; }
      .title { font-size: 36px; font-weight: 800; fill: #f5fbff; }
      .subtitle { font-size: 21px; fill: #b6cbe0; }
      .laneTitle { font-size: 25px; font-weight: 800; fill: #f4f8ff; }
      .sectionTitle { font-size: 23px; font-weight: 800; fill: #f4f8ff; }
      .label { font-size: 18px; fill: #e1edf8; }
      .small { font-size: 16px; fill: #b9cada; }
      .tiny { font-size: 14px; fill: #96aabc; }
      .mono { font-size: 16px; fill: #f4f7fb; }
      .muted { fill: #8fa1b4; }
      .blue { fill: #78c2ff; }
      .purple { fill: #e0a4ff; }
      .orange { fill: #ffbd45; }
      .green { fill: #69e6a0; }
      .red { fill: #ff756e; }
      .cyan { fill: #55d7ff; }
      .yellow { fill: #ffd35a; }
      .panel { rx: 14; stroke-width: 2.5; }
      .box { rx: 10; stroke-width: 2.4; }
      .thin { stroke-width: 2; }
      .arrow { stroke-width: 4; fill: none; }
      .dash { stroke-dasharray: 10 8; }
    </style>
  </defs>

  <rect width="3000" height="1750" fill="url(#bg)"/>
  <rect x="20" y="18" width="2960" height="1710" rx="18" fill="none" stroke="#28557d" stroke-width="3"/>

  <text x="42" y="58" class="font title">mKernel GEMM_AR fused dataflow: CTA roles + receive/reduce/publish order</text>
  <text x="44" y="92" class="font subtitle">The key ordering is linear: Data WR -> recv_buf, Ready WR -> arrival_queue, recv-progress -> remote flag, local+remote AND -> reduce/publish, published_chunks -> iter-end.</text>

  <!-- Shape strip -->
  <rect x="36" y="116" width="2928" height="160" rx="14" fill="#07111a" stroke="#54799a" stroke-width="2"/>
  <text x="64" y="160" class="font sectionTitle orange">SHAPES AND TILING</text>
  <line x1="332" y1="130" x2="332" y2="258" stroke="#46667f" stroke-width="2"/>
  <text x="370" y="154" class="font mono">G local GPUs per node; NN nodes; GPU d owns final rows [d*M/G, (d+1)*M/G)</text>
  <text x="370" y="190" class="font mono">A [M,Ks] bf16, B [Ks,N] bf16, partial C [M,N], final C_final [M,N]</text>
  <text x="370" y="226" class="font mono">tile = 128 x 256 bf16 = 64 KiB; chunk = chunk_tiles tiles, default chunk_tiles = 4, chunk &lt;= 256 KiB</text>
  <line x1="1700" y1="130" x2="1700" y2="258" stroke="#46667f" stroke-width="2"/>
  <text x="1738" y="154" class="font mono">chunk_id = rb_in_slice * chunks_per_row + col_chunk</text>
  <text x="1738" y="190" class="font mono">slice shape per GPU d = [M/G, N]; tile shape = [128,256]</text>
  <text x="1738" y="226" class="font mono">recv_buf shape per GPU = [(NN-1) peer slots, slice_tiles]</text>
  <rect x="2512" y="134" width="420" height="108" rx="10" fill="#071d16" stroke="#28b37a" stroke-width="2"/>
  <text x="2534" y="165" class="font mono green">Example: NN=2, G=8</text>
  <text x="2534" y="195" class="font small">local rows/GPU = M/8</text>
  <text x="2534" y="223" class="font small">chunk_tiles=4, tile=64 KiB</text>

  <!-- Dispatcher -->
  <rect x="36" y="302" width="400" height="1220" class="panel" fill="#07131d" stroke="#68849d"/>
  <text x="58" y="338" class="font sectionTitle">CTA ROLE DISPATCHER</text>
  <text x="58" y="366" class="font small muted">blockIdx.x selects role</text>

  <rect x="60" y="404" width="350" height="128" class="box" fill="url(#panelBlue)" stroke="#3c9df2"/>
  <text x="86" y="438" class="font mono blue">[0, num_comp_sms)</text>
  <text x="86" y="476" class="font sectionTitle">COMPUTE CTAs</text>
  <text x="86" y="506" class="font small">fused_comp_sm</text>

  <rect x="60" y="560" width="350" height="128" class="box" fill="url(#panelPurple)" stroke="#b35cdc"/>
  <text x="86" y="594" class="font mono purple">[next, +num_intra_ar_sms)</text>
  <text x="86" y="632" class="font sectionTitle">INTRA-AR CTAs</text>
  <text x="86" y="662" class="font small">fused_intra_ar_sm</text>

  <rect x="60" y="716" width="350" height="128" class="box" fill="url(#panelOrange)" stroke="#ff9f22"/>
  <text x="86" y="750" class="font mono orange">[next, +num_inter_send_sms)</text>
  <text x="86" y="788" class="font sectionTitle">INTER-SEND CTAs</text>
  <text x="86" y="818" class="font small">fused_inter_send_sm</text>

  <rect x="60" y="872" width="350" height="128" class="box" fill="url(#panelGreen)" stroke="#28c987"/>
  <text x="86" y="906" class="font mono green">[next, +num_inter_recv_progress_sms)</text>
  <text x="86" y="944" class="font sectionTitle">INTER-RECV-PROGRESS</text>
  <text x="86" y="974" class="font small">fused_inter_recv_progress_sm</text>

  <rect x="60" y="1028" width="350" height="128" class="box" fill="url(#panelYellow)" stroke="#d6b400"/>
  <text x="86" y="1062" class="font mono yellow">[tail, config::NUM_BLOCKS)</text>
  <text x="86" y="1100" class="font sectionTitle">INTER-REDUCE/PUBLISH</text>
  <text x="86" y="1130" class="font small">fused_inter_reduce_and_publish_sm</text>

  <rect x="60" y="1190" width="350" height="150" class="box" fill="#0a1620" stroke="#6a8195"/>
  <text x="86" y="1224" class="font mono cyan">state flags per chunk</text>
  <text x="86" y="1258" class="font small">local_done_flag</text>
  <text x="86" y="1286" class="font small">remote_arrived_peer_mask</text>
  <text x="86" y="1314" class="font small">remote_arrived_flag</text>

  <rect x="60" y="1364" width="350" height="92" class="box" fill="#11130d" stroke="#d6b400"/>
  <text x="86" y="1398" class="font small">Step 8 is not parallel with Step 7.</text>
  <text x="86" y="1428" class="font small">It waits for all published chunks.</text>

  <!-- Lane containers -->
  <rect x="460" y="302" width="2490" height="148" class="panel" fill="url(#panelBlue)" stroke="#2577bd"/>
  <rect x="460" y="462" width="2490" height="156" class="panel" fill="url(#panelPurple)" stroke="#954ec2"/>
  <rect x="460" y="630" width="2490" height="160" class="panel" fill="url(#panelOrange)" stroke="#f09b20"/>
  <rect x="460" y="802" width="2490" height="230" class="panel" fill="#07131a" stroke="#4d8a7c"/>
  <rect x="460" y="1044" width="2490" height="170" class="panel" fill="url(#panelCyan)" stroke="#1ca4bf"/>
  <rect x="460" y="1226" width="2490" height="212" class="panel" fill="#0b1420" stroke="#d8b200"/>
  <rect x="460" y="1450" width="2490" height="150" class="panel" fill="#111106" stroke="#d8b200"/>

  <!-- Lane 1: Compute -->
  <circle cx="500" cy="342" r="24" fill="#2b8ee8" stroke="#a4d7ff" stroke-width="2"/>
  <text x="492" y="350" class="font sectionTitle">1</text>
  <text x="538" y="348" class="font laneTitle blue">Compute CTAs</text>
  <text x="538" y="378" class="font small">full tile producer</text>

  <rect x="820" y="326" width="170" height="70" class="box" fill="#071a30" stroke="#64b5ff"/>
  <text x="850" y="356" class="font label">load A tiles</text>
  <text x="850" y="382" class="font tiny">A [M,Ks]</text>
  <rect x="1058" y="326" width="170" height="70" class="box" fill="#071a30" stroke="#64b5ff"/>
  <text x="1088" y="356" class="font label">load B tiles</text>
  <text x="1088" y="382" class="font tiny">B [Ks,N]</text>
  <rect x="1296" y="326" width="180" height="70" class="box" fill="#071a30" stroke="#64b5ff"/>
  <text x="1338" y="356" class="font label">GEMM</text>
  <text x="1318" y="382" class="font tiny">bf16 MMA</text>
  <rect x="1544" y="326" width="260" height="70" class="box" fill="#071a30" stroke="#64b5ff"/>
  <text x="1574" y="356" class="font label">TMA store to C_dbuf</text>
  <text x="1574" y="382" class="font tiny">C_distributed_tensor [M,N]</text>
  <rect x="1872" y="326" width="250" height="70" class="box" fill="#071a30" stroke="#64b5ff"/>
  <text x="1904" y="356" class="font label">signal barrier</text>
  <text x="1904" y="382" class="font tiny">per tile/chunk owner</text>

  <path d="M990 361 H1058" class="arrow" stroke="#64b5ff" marker-end="url(#arrowBlue)"/>
  <path d="M1228 361 H1296" class="arrow" stroke="#64b5ff" marker-end="url(#arrowBlue)"/>
  <path d="M1476 361 H1544" class="arrow" stroke="#64b5ff" marker-end="url(#arrowBlue)"/>
  <path d="M1804 361 H1872" class="arrow" stroke="#64b5ff" marker-end="url(#arrowBlue)"/>
  <path d="M1998 396 V462" class="arrow" stroke="#d48bff" marker-end="url(#arrowPurple)"/>

  <!-- Lane 2: Intra AR -->
  <circle cx="500" cy="502" r="24" fill="#9a55ce" stroke="#efc6ff" stroke-width="2"/>
  <text x="492" y="510" class="font sectionTitle">2</text>
  <text x="538" y="508" class="font laneTitle purple">Intra-AR CTAs</text>
  <text x="538" y="538" class="font small">local RS</text>

  <rect x="820" y="492" width="180" height="74" class="box" fill="#1a1028" stroke="#d48bff"/>
  <text x="850" y="522" class="font label">wait barrier</text>
  <text x="850" y="548" class="font tiny">per tile</text>
  <rect x="1080" y="492" width="310" height="74" class="box" fill="#1a1028" stroke="#d48bff"/>
  <text x="1110" y="522" class="font label">reduce-scatter local GPUs</text>
  <text x="1110" y="548" class="font tiny">sum G partial C values</text>
  <rect x="1470" y="492" width="340" height="74" class="box" fill="#1a1028" stroke="#d48bff"/>
  <text x="1500" y="522" class="font label">dual store slice chunk</text>
  <text x="1500" y="548" class="font tiny">C_local [M/G,N] + staging_buf</text>
  <rect x="1900" y="492" width="360" height="74" class="box" fill="#1a1028" stroke="#d48bff"/>
  <text x="1930" y="522" class="font label">release-store local_done_flag</text>
  <text x="1930" y="548" class="font tiny">local_done_flag[chunk] = 1</text>
  <rect x="2370" y="492" width="380" height="74" class="box" fill="#171329" stroke="#d48bff"/>
  <text x="2400" y="522" class="font mono purple">slice rows:</text>
  <text x="2400" y="548" class="font mono">[d*M/G, (d+1)*M/G) x N</text>

  <path d="M1000 529 H1080" class="arrow" stroke="#d48bff" marker-end="url(#arrowPurple)"/>
  <path d="M1390 529 H1470" class="arrow" stroke="#d48bff" marker-end="url(#arrowPurple)"/>
  <path d="M1810 529 H1900" class="arrow" stroke="#d48bff" marker-end="url(#arrowPurple)"/>
  <path d="M2260 529 H2370" class="arrow" stroke="#d48bff" marker-end="url(#arrowPurple)"/>
  <path d="M2080 566 V630" class="arrow" stroke="#ffb23d" marker-end="url(#arrowOrange)"/>

  <!-- Lane 3: Inter send -->
  <circle cx="500" cy="670" r="24" fill="#ff9f1f" stroke="#ffd08a" stroke-width="2"/>
  <text x="492" y="678" class="font sectionTitle">3</text>
  <text x="538" y="676" class="font laneTitle orange">Inter-send CTAs</text>
  <text x="538" y="706" class="font small">after local AR</text>

  <rect x="780" y="670" width="260" height="74" class="box" fill="#211607" stroke="#ffb23d"/>
  <text x="810" y="700" class="font label">wait local_done_flag</text>
  <text x="810" y="726" class="font tiny">chunk is locally reduced</text>
  <rect x="1110" y="670" width="330" height="74" class="box" fill="#211607" stroke="#ffb23d"/>
  <text x="1140" y="700" class="font label">build TransferCmd</text>
  <text x="1140" y="726" class="font tiny">for peer_slot and chunk</text>
  <rect x="1520" y="650" width="430" height="112" class="box" fill="#160f08" stroke="#ffb23d"/>
  <text x="1550" y="682" class="font mono orange">TransferCmd fields</text>
  <text x="1550" y="712" class="font tiny">dst_rank, tile_id, bytes, local_offset</text>
  <text x="1550" y="738" class="font tiny">remote_offset, lane_id</text>
  <text x="1790" y="738" class="font tiny">reserved0=peer_slot*G+dev_idx</text>
  <rect x="2030" y="670" width="260" height="74" class="box" fill="#211607" stroke="#ffb23d"/>
  <text x="2060" y="700" class="font label">push to D2H FIFO</text>
  <text x="2060" y="726" class="font tiny">host-pinned ring</text>
  <path d="M1040 707 H1110" class="arrow" stroke="#ffb23d" marker-end="url(#arrowOrange)"/>
  <path d="M1440 707 H1520" class="arrow" stroke="#ffb23d" marker-end="url(#arrowOrange)"/>
  <path d="M1950 707 H2030" class="arrow" stroke="#ffb23d" marker-end="url(#arrowOrange)"/>
  <path d="M2160 744 V802" class="arrow" stroke="#ffb23d" marker-end="url(#arrowOrange)"/>

  <!-- Lane 4: Proxy and remote landing -->
  <circle cx="500" cy="842" r="24" fill="#ff9f1f" stroke="#ffd08a" stroke-width="2"/>
  <text x="492" y="850" class="font sectionTitle">4</text>
  <text x="538" y="848" class="font laneTitle orange">CPU proxy / NIC</text>
  <text x="538" y="878" class="font small">proxy path</text>

  <rect x="760" y="850" width="210" height="70" class="box" fill="#14200c" stroke="#ffb23d"/>
  <text x="790" y="880" class="font label">read D2H FIFO</text>
  <text x="790" y="906" class="font tiny">TransferCmd batch</text>
  <rect x="1048" y="850" width="230" height="70" class="box" fill="#14200c" stroke="#ffb23d"/>
  <text x="1078" y="880" class="font label">select QP/lane</text>
  <text x="1078" y="906" class="font tiny">by peer_slot/lane_id</text>
  <rect x="1360" y="828" width="230" height="82" class="box" fill="#092719" stroke="#67e89f"/>
  <text x="1390" y="860" class="font label green">Data WR</text>
  <text x="1390" y="888" class="font tiny">payload -> recv_buf</text>
  <rect x="1360" y="936" width="230" height="82" class="box" fill="#28110f" stroke="#ff6b5f"/>
  <text x="1390" y="968" class="font label red">Ready metadata WR</text>
  <text x="1390" y="996" class="font tiny">arrival_queue entry</text>
  <rect x="1678" y="848" width="410" height="90" class="box" fill="#092719" stroke="#67e89f"/>
  <circle cx="1708" cy="878" r="20" fill="#2aa86c" stroke="#b8ffd3" stroke-width="2"/>
  <text x="1698" y="886" class="font label">5A</text>
  <text x="1740" y="874" class="font label green">Data lands first</text>
  <text x="1740" y="904" class="font mono">recv_buf[peer_slot][chunk]</text>
  <rect x="1678" y="958" width="410" height="90" class="box" fill="#28110f" stroke="#ff6b5f"/>
  <circle cx="1708" cy="988" r="20" fill="#d94c42" stroke="#ffc3bf" stroke-width="2"/>
  <text x="1698" y="996" class="font label">5B</text>
  <text x="1740" y="984" class="font label red">Ready metadata lands after data</text>
  <text x="1740" y="1014" class="font mono">arrival_queue[q][slot]</text>
  <rect x="2170" y="858" width="700" height="112" rx="12" fill="#07131a" stroke="#7f9bb2" stroke-width="2"/>
  <text x="2200" y="890" class="font mono cyan">data-before-ready contract</text>
  <text x="2200" y="924" class="font small">Nonzero arrival_queue word means</text>
  <text x="2200" y="952" class="font small">payload is visible in recv_buf.</text>
  <path d="M970 885 H1048" class="arrow" stroke="#ffb23d" marker-end="url(#arrowOrange)"/>
  <path d="M1278 885 H1360" class="arrow" stroke="#ffb23d" marker-end="url(#arrowOrange)"/>
  <path d="M1590 869 H1678" class="arrow" stroke="#67e89f" marker-end="url(#arrowGreen)"/>
  <path d="M1475 910 V936" class="arrow" stroke="#ff6b5f" marker-end="url(#arrowRed)"/>
  <path d="M1590 977 H1678" class="arrow dash" stroke="#ff6b5f" marker-end="url(#arrowRed)"/>
  <path d="M1885 1048 V1044" class="arrow" stroke="#45d6ff" marker-end="url(#arrowCyan)"/>

  <!-- Lane 5: recv progress -->
  <circle cx="500" cy="1084" r="24" fill="#1fc1d8" stroke="#b7f5ff" stroke-width="2"/>
  <text x="492" y="1092" class="font sectionTitle">6</text>
  <text x="538" y="1090" class="font laneTitle cyan">Inter-recv-progress CTAs</text>
  <text x="538" y="1120" class="font small">remote ready</text>

  <rect x="760" y="1090" width="230" height="70" class="box" fill="#062530" stroke="#45d6ff"/>
  <text x="790" y="1120" class="font label">poll arrival_queue</text>
  <text x="790" y="1146" class="font tiny">tid 0 per progress CTA</text>
  <rect x="1060" y="1090" width="330" height="70" class="box" fill="#062530" stroke="#45d6ff"/>
  <text x="1090" y="1120" class="font label">decode metadata</text>
  <text x="1090" y="1146" class="font tiny">first_tile, run_tiles, peer_slot, chunk_id</text>
  <rect x="1460" y="1090" width="250" height="70" class="box" fill="#062530" stroke="#45d6ff"/>
  <text x="1490" y="1120" class="font label">__threadfence_system</text>
  <text x="1490" y="1146" class="font tiny">payload visible before flag</text>
  <rect x="1780" y="1090" width="330" height="70" class="box" fill="#062530" stroke="#45d6ff"/>
  <text x="1810" y="1120" class="font label">update peer mask</text>
  <text x="1810" y="1146" class="font tiny">remote_arrived_peer_mask |= peer_bit</text>
  <polygon points="2260,1082 2384,1125 2260,1168 2136,1125" fill="#08202b" stroke="#45d6ff" stroke-width="2.4"/>
  <text x="2196" y="1118" class="font tiny">all NN-1</text>
  <text x="2198" y="1142" class="font tiny">peer bits?</text>
  <rect x="2460" y="1090" width="360" height="70" class="box" fill="#062530" stroke="#45d6ff"/>
  <text x="2490" y="1120" class="font label">release-store remote flag</text>
  <text x="2490" y="1146" class="font tiny">remote_arrived_flag[chunk] = 1</text>
  <path d="M990 1125 H1060" class="arrow" stroke="#45d6ff" marker-end="url(#arrowCyan)"/>
  <path d="M1390 1125 H1460" class="arrow" stroke="#45d6ff" marker-end="url(#arrowCyan)"/>
  <path d="M1710 1125 H1780" class="arrow" stroke="#45d6ff" marker-end="url(#arrowCyan)"/>
  <path d="M2110 1125 H2136" class="arrow" stroke="#45d6ff" marker-end="url(#arrowCyan)"/>
  <path d="M2384 1125 H2460" class="arrow" stroke="#45d6ff" marker-end="url(#arrowCyan)"/>
  <text x="2398" y="1112" class="font tiny cyan">yes</text>
  <path d="M1885 1048 V1090" class="arrow" stroke="#45d6ff" marker-end="url(#arrowCyan)"/>

  <!-- Lane 6: reduce publish -->
  <circle cx="500" cy="1266" r="24" fill="#d2b100" stroke="#fff1a6" stroke-width="2"/>
  <text x="492" y="1274" class="font sectionTitle">7</text>
  <text x="538" y="1272" class="font laneTitle yellow">Inter-reduce / publish CTAs</text>
  <text x="538" y="1302" class="font small">flag gate</text>

  <rect x="760" y="1256" width="300" height="58" class="box" fill="#1a1028" stroke="#d48bff"/>
  <text x="790" y="1282" class="font mono purple">local_done_flag == 1</text>
  <text x="790" y="1304" class="font tiny">from Step 2 intra-AR</text>
  <rect x="760" y="1330" width="300" height="58" class="box" fill="#062530" stroke="#45d6ff"/>
  <text x="790" y="1356" class="font mono cyan">remote_arrived_flag == 1</text>
  <text x="790" y="1378" class="font tiny">from Step 6 recv-progress</text>
  <circle cx="1140" cy="1328" r="40" fill="#0a1620" stroke="#f4f7fb" stroke-width="3"/>
  <text x="1110" y="1336" class="font sectionTitle">AND</text>
  <rect x="1230" y="1292" width="300" height="74" class="box" fill="#1d1b09" stroke="#ffd34d"/>
  <text x="1260" y="1322" class="font label">claim/enter chunk</text>
  <text x="1260" y="1348" class="font tiny">both flags are true</text>
  <rect x="1610" y="1292" width="450" height="74" class="box" fill="#1d1b09" stroke="#ffd34d"/>
  <text x="1640" y="1322" class="font label">reduce chunk</text>
  <text x="1640" y="1348" class="font tiny">C_local[chunk] + sum(C_recv[peer_slot][chunk])</text>
  <rect x="2150" y="1292" width="360" height="74" class="box" fill="#1d1b09" stroke="#ffd34d"/>
  <text x="2180" y="1322" class="font label">publish final</text>
  <text x="2180" y="1348" class="font tiny">multimem.st -> C_final [M,N]</text>
  <rect x="2600" y="1292" width="260" height="74" class="box" fill="#1d1b09" stroke="#ffd34d"/>
  <text x="2630" y="1322" class="font label">atomicAdd</text>
  <text x="2630" y="1348" class="font tiny">published_chunks += 1</text>
  <rect x="1610" y="1380" width="900" height="50" rx="9" fill="#11130d" stroke="#ffd34d" stroke-width="2"/>
  <text x="1640" y="1412" class="font mono yellow">multicast scope: node-local CUDA/NVLink multicast, not cross-node broadcast</text>
  <path d="M1060 1285 C1086 1285 1090 1308 1102 1316" class="arrow" stroke="#d48bff" marker-end="url(#arrowPurple)"/>
  <path d="M1060 1359 C1086 1359 1090 1342 1102 1336" class="arrow" stroke="#45d6ff" marker-end="url(#arrowCyan)"/>
  <path d="M1180 1328 H1230" class="arrow" stroke="#ffd34d" marker-end="url(#arrowYellow)"/>
  <path d="M1530 1329 H1610" class="arrow" stroke="#ffd34d" marker-end="url(#arrowYellow)"/>
  <path d="M2060 1329 H2150" class="arrow" stroke="#ffd34d" marker-end="url(#arrowYellow)"/>
  <path d="M2510 1329 H2600" class="arrow" stroke="#ffd34d" marker-end="url(#arrowYellow)"/>
  <path d="M2730 1366 V1450" class="arrow" stroke="#ffd34d" marker-end="url(#arrowYellow)"/>
  <text x="2760" y="1400" class="font tiny yellow">published_chunks</text>

  <!-- Lane 7/8: iter end -->
  <circle cx="500" cy="1490" r="24" fill="#ffb11e" stroke="#ffe29a" stroke-width="2"/>
  <text x="492" y="1498" class="font sectionTitle">8</text>
  <text x="538" y="1496" class="font laneTitle yellow">Iteration-end dependency chain inside kernel</text>
  <text x="538" y="1526" class="font small">after publish</text>

  <rect x="760" y="1510" width="310" height="64" class="box" fill="#1d1b09" stroke="#ffd34d"/>
  <text x="790" y="1538" class="font label">wait gate</text>
  <text x="790" y="1562" class="font tiny">published_chunks == total_chunks</text>
  <rect x="1160" y="1510" width="340" height="64" class="box" fill="#1d1b09" stroke="#ffd34d"/>
  <text x="1190" y="1538" class="font label">finish multicast publication</text>
  <text x="1190" y="1562" class="font tiny">threadfence_system + local signal/wait</text>
  <rect x="1590" y="1510" width="310" height="64" class="box" fill="#1d1b09" stroke="#ffd34d"/>
  <text x="1620" y="1538" class="font label">reset per-iter state</text>
  <text x="1620" y="1562" class="font tiny">arrival_queue, flags, counters</text>
  <rect x="1990" y="1510" width="320" height="64" class="box" fill="#1d1b09" stroke="#ffd34d"/>
  <text x="2020" y="1538" class="font label">cross-node barrier</text>
  <text x="2020" y="1562" class="font tiny">BARRIER_NOTIFY via proxy</text>
  <rect x="2400" y="1510" width="260" height="64" class="box" fill="#1d1b09" stroke="#ffd34d"/>
  <text x="2430" y="1538" class="font label">next epoch / run</text>
  <text x="2430" y="1562" class="font tiny">steady-state continues</text>
  <path d="M1070 1542 H1160" class="arrow" stroke="#ffd34d" marker-end="url(#arrowYellow)"/>
  <path d="M1500 1542 H1590" class="arrow" stroke="#ffd34d" marker-end="url(#arrowYellow)"/>
  <path d="M1900 1542 H1990" class="arrow" stroke="#ffd34d" marker-end="url(#arrowYellow)"/>
  <path d="M2310 1542 H2400" class="arrow" stroke="#ffd34d" marker-end="url(#arrowYellow)"/>

  <!-- Footer dependency summary -->
  <rect x="36" y="1624" width="2928" height="82" rx="12" fill="#07111a" stroke="#54799a" stroke-width="2"/>
  <text x="64" y="1658" class="font mono green">Data WR payload</text>
  <text x="234" y="1658" class="font mono">+</text>
  <text x="260" y="1658" class="font mono red">Ready metadata WR</text>
  <text x="480" y="1658" class="font mono">-> Step 6 drains -></text>
  <text x="718" y="1658" class="font mono cyan">remote_arrived_flag[chunk]</text>
  <text x="1018" y="1658" class="font mono">AND</text>
  <text x="1076" y="1658" class="font mono purple">local_done_flag[chunk]</text>
  <text x="1338" y="1658" class="font mono">-> Step 7 reduce/publish -></text>
  <text x="1684" y="1658" class="font mono yellow">published_chunks == total_chunks</text>
  <text x="2034" y="1658" class="font mono">-> Step 8 finish/reset/barrier</text>
  <text x="64" y="1694" class="font tiny muted">Source anchors: src/gemm_ar.cu fused_kernel, fused_intra_ar_sm, fused_inter_send_sm, fused_inter_recv_progress_sm, shared_reduce_my_slice_static; include/comm/internode/proxy_efa.h Data/Ready WR chain.</text>
</svg>
