<svg xmlns="http://www.w3.org/2000/svg" width="1120" height="680" viewBox="0 0 1120 680">
<rect width="100%" height="100%" fill="white"/>
<style>text{font-family:-apple-system,BlinkMacSystemFont,Segoe UI,Arial,sans-serif;fill:#20242a}.axis{stroke:#333;stroke-width:1.2}.grid{stroke:#e3e5e8;stroke-width:1}.label{font-size:16px}.tick{font-size:13px}.title{font-size:22px;font-weight:650}.legend{font-size:15px}.value{font-size:13px;font-weight:600}</style>
<text x="560.0" y="35" text-anchor="middle" class="title">GEMM + AllReduce, 2 nodes x 8 H20 RoCE (world=16)</text>
<line x1="90" y1="550.0" x2="1080" y2="550.0" class="grid"/>
<text x="78" y="554.0" text-anchor="end" class="tick">0</text>
<line x1="90" y1="310.0" x2="1080" y2="310.0" class="grid"/>
<text x="78" y="314.0" text-anchor="end" class="tick">50</text>
<line x1="90" y1="70.0" x2="1080" y2="70.0" class="grid"/>
<text x="78" y="74.0" text-anchor="end" class="tick">100</text>
<line x1="90" y1="70" x2="90" y2="550" class="axis"/>
<line x1="90" y1="550" x2="1080" y2="550" class="axis"/>
<text x="22" y="310.0" transform="rotate(-90 22 310.0)" text-anchor="middle" class="label">TFLOPS per GPU (bf16)</text>
<text x="585.0" y="655" text-anchor="middle" class="label">Shape (M x K x N), K=M/16</text>
<rect x="90" y="50" width="16" height="16" fill="#4C72B0"/><text x="114" y="63" class="legend">CuBLAS+NCCL</text>
<rect x="250" y="50" width="16" height="16" fill="#F58518"/><text x="274" y="63" class="legend">mKernel</text>
<rect x="133.6" y="538.5" width="55.4" height="11.5" fill="#4C72B0"/>
<text x="161.3" y="532.5" text-anchor="middle" class="value">2</text>
<rect x="189.0" y="530.6" width="55.4" height="19.4" fill="#F58518"/>
<text x="216.7" y="524.6" text-anchor="middle" class="value">4</text>
<text x="189.0" y="572.0" transform="rotate(18 189.0 572.0)" text-anchor="start" class="tick">2048x128x2048</text>
<rect x="331.6" y="494.7" width="55.4" height="55.3" fill="#4C72B0"/>
<text x="359.3" y="488.7" text-anchor="middle" class="value">12</text>
<rect x="387.0" y="462.8" width="55.4" height="87.2" fill="#F58518"/>
<text x="414.7" y="456.8" text-anchor="middle" class="value">18</text>
<text x="387.0" y="572.0" transform="rotate(18 387.0 572.0)" text-anchor="start" class="tick">4096x256x4096</text>
<rect x="529.6" y="427.1" width="55.4" height="122.9" fill="#4C72B0"/>
<text x="557.3" y="421.1" text-anchor="middle" class="value">26</text>
<rect x="585.0" y="359.6" width="55.4" height="190.4" fill="#F58518"/>
<text x="612.7" y="353.6" text-anchor="middle" class="value">40</text>
<text x="585.0" y="572.0" transform="rotate(18 585.0 572.0)" text-anchor="start" class="tick">8192x512x8192</text>
<rect x="727.6" y="308.0" width="55.4" height="242.0" fill="#4C72B0"/>
<text x="755.3" y="302.0" text-anchor="middle" class="value">50</text>
<rect x="783.0" y="254.7" width="55.4" height="295.3" fill="#F58518"/>
<text x="810.7" y="248.7" text-anchor="middle" class="value">62</text>
<text x="783.0" y="572.0" transform="rotate(18 783.0 572.0)" text-anchor="start" class="tick">16384x1024x16384</text>
<rect x="925.6" y="192.2" width="55.4" height="357.8" fill="#4C72B0"/>
<text x="953.3" y="186.2" text-anchor="middle" class="value">75</text>
<rect x="981.0" y="226.8" width="55.4" height="323.2" fill="#F58518"/>
<text x="1008.7" y="220.8" text-anchor="middle" class="value">67</text>
<text x="981.0" y="572.0" transform="rotate(18 981.0 572.0)" text-anchor="start" class="tick">32768x2048x32768</text>
</svg>